<!-- Generated by IcoMoon.io -->
<svg version="1.1" xmlns="http://www.w3.org/2000/svg" width="512" height="512" viewBox="0 0 512 512">
<title></title>
<g id="icomoon-ignore">
    <line stroke-width="1" x1="16" y1="0" x2="16" y2="512" stroke="#449FDB" opacity="0.3"></line>
    <line stroke-width="1" x1="32" y1="0" x2="32" y2="512" stroke="#449FDB" opacity="1"></line>
    <line stroke-width="1" x1="48" y1="0" x2="48" y2="512" stroke="#449FDB" opacity="0.3"></line>
    <line stroke-width="1" x1="64" y1="0" x2="64" y2="512" stroke="#449FDB" opacity="1"></line>
    <line stroke-width="1" x1="80" y1="0" x2="80" y2="512" stroke="#449FDB" opacity="0.3"></line>
    <line stroke-width="1" x1="96" y1="0" x2="96" y2="512" stroke="#449FDB" opacity="1"></line>
    <line stroke-width="1" x1="112" y1="0" x2="112" y2="512" stroke="#449FDB" opacity="0.3"></line>
    <line stroke-width="1" x1="128" y1="0" x2="128" y2="512" stroke="#449FDB" opacity="1"></line>
    <line stroke-width="1" x1="144" y1="0" x2="144" y2="512" stroke="#449FDB" opacity="0.3"></line>
    <line stroke-width="1" x1="160" y1="0" x2="160" y2="512" stroke="#449FDB" opacity="1"></line>
    <line stroke-width="1" x1="176" y1="0" x2="176" y2="512" stroke="#449FDB" opacity="0.3"></line>
    <line stroke-width="1" x1="192" y1="0" x2="192" y2="512" stroke="#449FDB" opacity="1"></line>
    <line stroke-width="1" x1="208" y1="0" x2="208" y2="512" stroke="#449FDB" opacity="0.3"></line>
    <line stroke-width="1" x1="224" y1="0" x2="224" y2="512" stroke="#449FDB" opacity="1"></line>
    <line stroke-width="1" x1="240" y1="0" x2="240" y2="512" stroke="#449FDB" opacity="0.3"></line>
    <line stroke-width="1" x1="256" y1="0" x2="256" y2="512" stroke="#449FDB" opacity="1"></line>
    <line stroke-width="1" x1="272" y1="0" x2="272" y2="512" stroke="#449FDB" opacity="0.3"></line>
    <line stroke-width="1" x1="288" y1="0" x2="288" y2="512" stroke="#449FDB" opacity="1"></line>
    <line stroke-width="1" x1="304" y1="0" x2="304" y2="512" stroke="#449FDB" opacity="0.3"></line>
    <line stroke-width="1" x1="320" y1="0" x2="320" y2="512" stroke="#449FDB" opacity="1"></line>
    <line stroke-width="1" x1="336" y1="0" x2="336" y2="512" stroke="#449FDB" opacity="0.3"></line>
    <line stroke-width="1" x1="352" y1="0" x2="352" y2="512" stroke="#449FDB" opacity="1"></line>
    <line stroke-width="1" x1="368" y1="0" x2="368" y2="512" stroke="#449FDB" opacity="0.3"></line>
    <line stroke-width="1" x1="384" y1="0" x2="384" y2="512" stroke="#449FDB" opacity="1"></line>
    <line stroke-width="1" x1="400" y1="0" x2="400" y2="512" stroke="#449FDB" opacity="0.3"></line>
    <line stroke-width="1" x1="416" y1="0" x2="416" y2="512" stroke="#449FDB" opacity="1"></line>
    <line stroke-width="1" x1="432" y1="0" x2="432" y2="512" stroke="#449FDB" opacity="0.3"></line>
    <line stroke-width="1" x1="448" y1="0" x2="448" y2="512" stroke="#449FDB" opacity="1"></line>
    <line stroke-width="1" x1="464" y1="0" x2="464" y2="512" stroke="#449FDB" opacity="0.3"></line>
    <line stroke-width="1" x1="480" y1="0" x2="480" y2="512" stroke="#449FDB" opacity="1"></line>
    <line stroke-width="1" x1="496" y1="0" x2="496" y2="512" stroke="#449FDB" opacity="0.3"></line>
    <line stroke-width="1" x1="0" y1="16" x2="512" y2="16" stroke="#449FDB" opacity="0.3"></line>
    <line stroke-width="1" x1="0" y1="32" x2="512" y2="32" stroke="#449FDB" opacity="1"></line>
    <line stroke-width="1" x1="0" y1="48" x2="512" y2="48" stroke="#449FDB" opacity="0.3"></line>
    <line stroke-width="1" x1="0" y1="64" x2="512" y2="64" stroke="#449FDB" opacity="1"></line>
    <line stroke-width="1" x1="0" y1="80" x2="512" y2="80" stroke="#449FDB" opacity="0.3"></line>
    <line stroke-width="1" x1="0" y1="96" x2="512" y2="96" stroke="#449FDB" opacity="1"></line>
    <line stroke-width="1" x1="0" y1="112" x2="512" y2="112" stroke="#449FDB" opacity="0.3"></line>
    <line stroke-width="1" x1="0" y1="128" x2="512" y2="128" stroke="#449FDB" opacity="1"></line>
    <line stroke-width="1" x1="0" y1="144" x2="512" y2="144" stroke="#449FDB" opacity="0.3"></line>
    <line stroke-width="1" x1="0" y1="160" x2="512" y2="160" stroke="#449FDB" opacity="1"></line>
    <line stroke-width="1" x1="0" y1="176" x2="512" y2="176" stroke="#449FDB" opacity="0.3"></line>
    <line stroke-width="1" x1="0" y1="192" x2="512" y2="192" stroke="#449FDB" opacity="1"></line>
    <line stroke-width="1" x1="0" y1="208" x2="512" y2="208" stroke="#449FDB" opacity="0.3"></line>
    <line stroke-width="1" x1="0" y1="224" x2="512" y2="224" stroke="#449FDB" opacity="1"></line>
    <line stroke-width="1" x1="0" y1="240" x2="512" y2="240" stroke="#449FDB" opacity="0.3"></line>
    <line stroke-width="1" x1="0" y1="256" x2="512" y2="256" stroke="#449FDB" opacity="1"></line>
    <line stroke-width="1" x1="0" y1="272" x2="512" y2="272" stroke="#449FDB" opacity="0.3"></line>
    <line stroke-width="1" x1="0" y1="288" x2="512" y2="288" stroke="#449FDB" opacity="1"></line>
    <line stroke-width="1" x1="0" y1="304" x2="512" y2="304" stroke="#449FDB" opacity="0.3"></line>
    <line stroke-width="1" x1="0" y1="320" x2="512" y2="320" stroke="#449FDB" opacity="1"></line>
    <line stroke-width="1" x1="0" y1="336" x2="512" y2="336" stroke="#449FDB" opacity="0.3"></line>
    <line stroke-width="1" x1="0" y1="352" x2="512" y2="352" stroke="#449FDB" opacity="1"></line>
    <line stroke-width="1" x1="0" y1="368" x2="512" y2="368" stroke="#449FDB" opacity="0.3"></line>
    <line stroke-width="1" x1="0" y1="384" x2="512" y2="384" stroke="#449FDB" opacity="1"></line>
    <line stroke-width="1" x1="0" y1="400" x2="512" y2="400" stroke="#449FDB" opacity="0.3"></line>
    <line stroke-width="1" x1="0" y1="416" x2="512" y2="416" stroke="#449FDB" opacity="1"></line>
    <line stroke-width="1" x1="0" y1="432" x2="512" y2="432" stroke="#449FDB" opacity="0.3"></line>
    <line stroke-width="1" x1="0" y1="448" x2="512" y2="448" stroke="#449FDB" opacity="1"></line>
    <line stroke-width="1" x1="0" y1="464" x2="512" y2="464" stroke="#449FDB" opacity="0.3"></line>
    <line stroke-width="1" x1="0" y1="480" x2="512" y2="480" stroke="#449FDB" opacity="1"></line>
    <line stroke-width="1" x1="0" y1="496" x2="512" y2="496" stroke="#449FDB" opacity="0.3"></line>
</g>
<path fill="#ffd93b" d="M255.987 511.998c-141.385 0-256-114.615-256-256s114.615-255.999 256-255.999c141.384 0 255.999 114.615 255.999 255.999s-114.614 256-255.999 256z"></path>
<path fill="#f4c534" d="M0.001 256c0 141.438 114.639 255.999 255.999 255.999 80.481 0 152.32-37.12 199.279-95.28-43.921 35.521-99.84 56.721-160.72 56.721-141.358 0-255.999-114.56-255.999-256 0-60.88 21.2-116.799 56.719-160.719-58.080 46.96-95.279 118.799-95.279 199.28z"></path>
<path fill="#fff" d="M185.329 390.96c0 0-9.697-52.352 13.839-53.344 12.385-0.529 21.089 29.184 28.592 70.272 8.576 46.991-15.056 73.552-35.647 88.608-30.177 22.064-62 18.080-92.32 3.615-37.6-17.935-68.736-87.2-69.216-104.207-0.72-26.32 20.576-26.832 49.408 35.103 0 0 3.792 11.68 0 0s-33.152-64.224-39.2-76.527c-6.32-12.88 11.488-29.872 23.808-13.648s48.208 67.055 50.88 79.503c0 0 2.4 9.648 0 0-2.4-9.632-52.048-89.056-54.336-102.543-2.72-16.113 19.904-20.178 27.536-8.721 5.568 8.351 58.176 95.599 58.176 95.599s-43.248-71.999-41.088-86.016c1.792-11.615 16.64-13.791 23.728-6.431 7.872 8.144 55.84 78.736 55.84 78.736z"></path>
<path fill="#dee4e9" d="M221.201 463.503c-7.409 14.72-18.625 25.344-29.072 32.993-30.175 22.064-61.999 18.080-92.32 3.615-37.6-17.935-68.751-87.2-69.216-104.224 0 0 65.168 161.311 190.607 67.615z"></path>
<path fill="#fff" d="M326.671 390.96c0 0 9.697-52.352-13.839-53.344-12.385-0.529-21.089 29.184-28.592 70.272-8.576 46.991 15.056 73.552 35.647 88.608 30.176 22.064 62 18.080 92.32 3.615 37.601-17.935 68.736-87.2 69.216-104.207 0.72-26.32-20.577-26.832-49.408 35.103 0 0-3.792 11.68 0 0s33.152-64.224 39.2-76.527c6.337-12.88-11.472-29.872-23.808-13.648-12.334 16.223-48.208 67.055-50.879 79.503 0 0-2.401 9.648 0 0 2.401-9.632 52.048-89.056 54.335-102.543 2.721-16.113-19.903-20.178-27.535-8.721-5.569 8.351-58.177 95.599-58.177 95.599s43.249-71.999 41.088-86.016c-1.792-11.615-16.64-13.791-23.726-6.431-7.873 8.144-55.841 78.736-55.841 78.736z"></path>
<path fill="#dee4e9" d="M290.816 463.503c7.408 14.72 18.623 25.344 29.071 32.993 30.176 22.064 62 18.080 92.32 3.615 37.601-17.935 68.736-87.2 69.216-104.224-0.017 0-65.183 161.311-190.607 67.615z"></path>
<path fill="#3e4347" d="M160.592 225.664c-11.488 2.577 9.665 86.512 95.408 86.576 85.76-0.065 106.911-84 95.408-86.576-8.4-4.496-40.752 35.84-95.408 35.84-55.695 0-87.007-40.337-95.408-35.84z"></path>
<path fill="#3e4347" d="M297.728 186.279c6.127 0 11.361-4.671 11.935-10.897 1.84-19.983 17.072-35.055 35.425-35.055s33.584 15.072 35.423 35.055c0.608 6.593 6.497 11.505 13.041 10.849 6.608-0.608 11.455-6.448 10.849-13.040-2.992-32.416-28.481-56.864-59.329-56.864-30.832 0-56.335 24.448-59.312 56.864-0.607 6.591 4.257 12.447 10.849 13.040 0.384 0.031 0.752 0.048 1.12 0.048z"></path>
<path fill="#3e4347" d="M119.552 186.272c6.128 0 11.36-4.671 11.936-10.895 1.84-19.984 17.072-35.056 35.423-35.056s33.584 15.072 35.424 35.056c0.592 6.591 6.431 11.504 13.040 10.849 6.608-0.608 11.457-6.448 10.849-13.041-2.976-32.416-28.479-56.864-59.312-56.864-30.832 0-56.335 24.448-59.311 56.864-0.608 6.593 4.256 12.447 10.848 13.041 0.368 0.031 0.736 0.047 1.104 0.047z"></path>
</svg>
