<svg version="1.1" xmlns="http://www.w3.org/2000/svg" width="32" height="32" viewBox="0 0 512 512">
<path fill="#25211F" d="M256 97.848q105.765 0 180.882 37.862t75.118 90.75q0 39.665-42.666 71.518t-111.173 46.276v-52.887q46.873-12.020 75.118-30.651t28.244-34.257q0-14.424-24.038-31.852t-73.315-31.251-108.169-13.823-108.169 13.823-73.314 31.251-24.038 31.852q0 18.030 36.056 39.065t92.544 30.651v-69.715l102.16 102.169-102.159 103.371v-82.937q-79.324-13.222-129.202-46.276t-49.878-76.326q0-52.888 75.118-90.75t180.882-37.862z"></path>
</svg>
