<svg width="34" height="34" viewBox="0 0 34 34" fill="none" xmlns="http://www.w3.org/2000/svg">
<g clip-path="url(#clip0)">
<path d="M16.9991 33.9999C7.61027 33.9999 -0.000854492 26.3887 -0.000854492 16.9999C-0.000854492 7.61113 7.61027 0 16.9991 0C26.3879 0 33.999 7.61113 33.999 16.9999C33.999 26.3887 26.3879 33.9999 16.9991 33.9999Z" fill="#FFD93B"/>
<path d="M7.62939e-05 17C7.62939e-05 26.3924 7.61285 33.9999 17 33.9999C22.3444 33.9999 27.115 31.5349 30.2334 27.6727C27.3168 30.0315 23.6034 31.4393 19.5606 31.4393C10.1735 31.4393 2.56069 23.8318 2.56069 14.4393C2.56069 10.3965 3.96849 6.68312 6.32723 3.76657C2.47038 6.885 7.62939e-05 11.6556 7.62939e-05 17Z" fill="#F4C534"/>
<path d="M12.307 25.9622C12.307 25.9622 11.6631 22.4857 13.226 22.4198C14.0484 22.3847 14.6264 24.3578 15.1247 27.0863C15.6942 30.2068 14.1249 31.9706 12.7575 32.9704C10.7536 34.4356 8.64028 34.171 6.62684 33.2105C4.12998 32.0195 2.06236 27.4199 2.03048 26.2905C1.98267 24.5427 3.39685 24.5087 5.31147 28.6216C5.31147 28.6216 5.56328 29.3972 5.31147 28.6216C5.05966 27.846 3.10998 24.3567 2.70835 23.5397C2.28867 22.6844 3.47123 21.556 4.28935 22.6334C5.10747 23.7107 7.49066 27.0863 7.66809 27.9129C7.66809 27.9129 7.82747 28.5536 7.66809 27.9129C7.50872 27.2733 4.21179 21.999 4.05985 21.1034C3.87923 20.0334 5.3816 19.7635 5.88841 20.5243C6.25816 21.0789 9.75165 26.8727 9.75165 26.8727C9.75165 26.8727 6.87972 22.0915 7.02316 21.1607C7.14216 20.3894 8.12815 20.2449 8.59884 20.7336C9.12159 21.2744 12.307 25.9622 12.307 25.9622Z" fill="white"/>
<path d="M14.6891 30.7795C14.1971 31.757 13.4523 32.4625 12.7585 32.9704C10.7547 34.4356 8.64135 34.171 6.62792 33.2105C4.13106 32.0195 2.06238 27.4199 2.03157 26.2894C2.03157 26.2894 6.35911 37.0015 14.6891 30.7795Z" fill="#DEE4E9"/>
<path d="M21.693 25.9622C21.693 25.9622 22.3369 22.4857 20.774 22.4198C19.9516 22.3847 19.3736 24.3578 18.8753 27.0863C18.3058 30.2068 19.8751 31.9706 21.2425 32.9704C23.2464 34.4356 25.3597 34.171 27.3731 33.2105C29.87 32.0195 31.9376 27.4199 31.9695 26.2905C32.0173 24.5427 30.6031 24.5087 28.6885 28.6216C28.6885 28.6216 28.4367 29.3972 28.6885 28.6216C28.9403 27.846 30.89 24.3567 31.2916 23.5397C31.7124 22.6844 30.5298 21.556 29.7106 22.6334C28.8915 23.7107 26.5093 27.0863 26.3319 27.9129C26.3319 27.9129 26.1725 28.5536 26.3319 27.9129C26.4913 27.2733 29.7882 21.999 29.9401 21.1034C30.1208 20.0334 28.6184 19.7635 28.1116 20.5243C27.7418 21.0789 24.2483 26.8727 24.2483 26.8727C24.2483 26.8727 27.1203 22.0915 26.9768 21.1607C26.8578 20.3894 25.8718 20.2449 25.4012 20.7336C24.8784 21.2744 21.693 25.9622 21.693 25.9622Z" fill="white"/>
<path d="M19.312 30.7795C19.8039 31.757 20.5487 32.4625 21.2425 32.9704C23.2464 34.4356 25.3597 34.171 27.3731 33.2105C29.87 32.0195 31.9376 27.4199 31.9695 26.2894C31.9684 26.2894 27.6409 37.0015 19.312 30.7795Z" fill="#DEE4E9"/>
<path d="M10.6643 14.9855C9.90147 15.1566 11.3061 20.7304 17 20.7347C22.695 20.7304 24.0996 15.1566 23.3357 14.9855C22.7779 14.6869 20.6295 17.3655 17 17.3655C13.3015 17.3655 11.2222 14.6869 10.6643 14.9855Z" fill="#3E4347"/>
<path d="M19.771 12.3701C20.1779 12.3701 20.5254 12.0599 20.5636 11.6465C20.6858 10.3195 21.6973 9.31861 22.916 9.31861C24.1347 9.31861 25.1462 10.3195 25.2683 11.6465C25.3087 12.0843 25.6997 12.4105 26.1343 12.3669C26.5731 12.3265 26.895 11.9387 26.8547 11.501C26.656 9.34836 24.9634 7.72487 22.9149 7.72487C20.8675 7.72487 19.1739 9.34836 18.9762 11.501C18.9359 11.9387 19.2589 12.3276 19.6966 12.3669C19.7221 12.369 19.7465 12.3701 19.771 12.3701Z" fill="#3E4347"/>
<path d="M7.93903 12.3696C8.34597 12.3696 8.6934 12.0594 8.73165 11.6461C8.85384 10.319 9.86534 9.31816 11.084 9.31816C12.3027 9.31816 13.3142 10.319 13.4364 11.6461C13.4757 12.0838 13.8635 12.41 14.3023 12.3665C14.7411 12.3261 15.0631 11.9383 15.0227 11.5005C14.8251 9.34791 13.1315 7.72441 11.084 7.72441C9.03659 7.72441 7.34297 9.34791 7.14535 11.5005C7.10497 11.9383 7.42797 12.3271 7.86572 12.3665C7.89016 12.3686 7.91459 12.3696 7.93903 12.3696Z" fill="#3E4347"/>
</g>
<defs>
<clipPath id="clip0">
<rect width="34" height="34" fill="white" transform="matrix(-1 0 0 1 34 0)"/>
</clipPath>
</defs>
</svg>
