<svg width="70" height="70" viewBox="0 0 70 70" fill="none" xmlns="http://www.w3.org/2000/svg">
<path d="M69.4746 35C69.4746 54.3312 53.9238 70 34.7375 70C15.5529 70 0 54.3312 0 35C0 15.6701 15.5529 0 34.7375 0C53.9238 0 69.4746 15.6701 69.4746 35Z" fill="#2F65B0"/>
<path d="M34.7375 2.01566C16.6857 2.01566 2.00024 16.8117 2.00024 35C2.00024 53.19 16.6857 67.9847 34.7375 67.9847C52.7899 67.9847 67.4743 53.19 67.4743 35C67.4743 16.8117 52.7899 2.01566 34.7375 2.01566ZM34.7375 65.958C18.1054 65.958 4.56819 52.6406 4.03608 36.0124H16.1608L16.4259 33.9861H4.03608C4.56819 17.3591 18.1054 4.04041 34.7375 4.04041C51.3702 4.04041 64.9064 17.3591 65.4376 33.9861H54.4332C52.9763 33.9861 51.6945 34.9645 51.2999 36.3748L47.7123 49.1944C47.5165 49.8966 47.0869 50.4497 46.5391 50.703C45.5284 51.1695 44.4134 50.4936 44.05 49.1944L32.6883 8.58341C32.4855 7.85856 31.7346 7.43494 31.0129 7.63946C30.5604 7.76989 30.2041 8.12666 30.0759 8.58341L24.8564 27.2437L24.6865 27.8479L23.9017 30.653L23.8075 30.994L23.6388 31.596C23.2432 33.0117 21.9624 33.9861 20.5054 33.9861H19.8377H19.3758C19.3666 34.0914 19.3594 34.1968 19.3594 34.3062C19.3594 34.419 19.3666 34.5338 19.378 34.6432C19.379 34.6724 19.3821 34.7016 19.3861 34.7278C19.3986 34.8363 19.412 34.9417 19.4338 35.0448C19.439 35.0721 19.4453 35.0959 19.4515 35.1232C19.468 35.1972 19.4876 35.2722 19.5085 35.3452C19.5209 35.3891 19.5352 35.437 19.5508 35.482C19.5685 35.5374 19.5903 35.5966 19.6108 35.65C19.6428 35.7312 19.6762 35.8083 19.7123 35.8895C19.7278 35.9209 19.7433 35.9547 19.7599 35.9885C19.7642 35.9961 19.7692 36.0049 19.7736 36.0124H21.9384C23.4047 36.0124 24.6906 35.0251 25.078 33.6001L25.5407 31.8985L25.6279 31.5782L26.3028 29.0984L26.4684 28.4902L29.26 18.2197C29.4868 17.3886 29.9951 16.7364 30.6401 16.4473C31.8124 15.9215 33.0932 16.7145 33.502 18.2197L44.574 58.925C44.7726 59.6537 45.5181 60.0812 46.241 59.8806C46.7028 59.7552 47.0632 59.3902 47.1882 58.925L52.764 38.4278C53.1515 37.0056 54.4382 36.0124 55.9023 36.0124H65.4376C64.9064 52.6406 51.3702 65.958 34.7375 65.958Z" fill="white"/>
<path d="M34.0892 29.4741C33.9972 29.6588 33.8863 29.8349 33.7618 29.999C32.6665 31.4364 30.6236 31.7055 29.1968 30.6028L26.514 28.5278L26.4684 28.4902L26.3028 29.0984L25.6279 31.5782C25.6431 31.5919 25.6599 31.6045 25.6742 31.6189C25.6742 31.6189 25.6754 31.6198 25.6763 31.6211C25.7613 31.7055 25.8441 31.7932 25.9216 31.8879C25.9994 31.9788 26.0741 32.0758 26.1423 32.177C26.2097 32.2774 26.2707 32.3764 26.3287 32.4786C26.3308 32.4836 26.3339 32.4868 26.3357 32.4912C26.3908 32.589 26.4385 32.6893 26.483 32.7906C26.487 32.8032 26.4944 32.8134 26.4985 32.8248C26.5399 32.9197 26.5742 33.0169 26.6071 33.1139C26.6134 33.1367 26.6217 33.1546 26.6289 33.1743C26.6559 33.264 26.6777 33.3558 26.7005 33.4478C26.7067 33.4791 26.717 33.5092 26.7232 33.5414C26.7407 33.6249 26.7512 33.7127 26.7625 33.7982C26.7686 33.8378 26.7771 33.8763 26.7823 33.9193C26.7917 34.0111 26.7935 34.1039 26.7957 34.199C26.7967 34.2353 26.8007 34.2689 26.8007 34.3062C26.8007 36.1152 25.5261 37.6264 23.8302 37.9776C23.7888 37.9863 23.7465 37.9913 23.7038 37.9964C23.5009 38.0315 23.2927 38.0528 23.0805 38.0528C22.9666 38.0528 22.8526 38.0465 22.7419 38.034C22.713 38.034 22.685 38.0315 22.656 38.0277C22.5524 38.0164 22.4519 38.0001 22.3517 37.9813C22.3423 37.9801 22.3349 37.9776 22.3259 37.9776C22.221 37.9551 22.1186 37.9248 22.0193 37.896C21.9861 37.886 21.9562 37.8772 21.9251 37.8672C21.8423 37.8371 21.7614 37.8083 21.6827 37.7745C21.66 37.7669 21.6395 37.7606 21.6186 37.7518C21.5295 37.713 21.4414 37.6691 21.3555 37.6251C21.3191 37.6063 21.284 37.5825 21.2489 37.5638C21.1898 37.5311 21.134 37.4973 21.0771 37.4596C21.0304 37.4283 20.9838 37.3995 20.9383 37.3681C20.8805 37.3267 20.8234 37.2828 20.7665 37.239C20.726 37.2038 20.6856 37.1674 20.6464 37.1348C20.61 37.1035 20.5758 37.0734 20.5418 37.0383C20.4703 36.9718 20.4009 36.9028 20.3368 36.8276C20.3119 36.8025 20.2848 36.7761 20.2612 36.7448C20.2198 36.6983 20.1815 36.6507 20.142 36.5981C20.1215 36.5717 20.1028 36.5467 20.0832 36.519C20.0064 36.4125 19.9351 36.3021 19.8697 36.1918C19.8635 36.1829 19.8573 36.1704 19.8523 36.1617C19.8501 36.1604 19.8501 36.1604 19.8492 36.1604C19.8231 36.1089 19.7981 36.0626 19.7736 36.0124C19.7692 36.0049 19.7642 35.9961 19.7599 35.9885C19.7433 35.9547 19.7278 35.9209 19.7122 35.8895C19.6762 35.8083 19.6428 35.7312 19.6108 35.65C19.5903 35.5966 19.5685 35.5374 19.5508 35.482C19.5352 35.437 19.5208 35.3891 19.5084 35.3452C19.4876 35.2722 19.468 35.1972 19.4515 35.1232C19.4453 35.0959 19.439 35.0721 19.4338 35.0448C19.412 34.9417 19.3985 34.8363 19.3861 34.7278C19.3821 34.7016 19.3789 34.6724 19.378 34.6432C19.3665 34.5338 19.3594 34.419 19.3594 34.3062C19.3594 34.1968 19.3665 34.0914 19.3758 33.9861C19.378 33.9651 19.378 33.9431 19.3789 33.9233C19.3789 33.9224 19.3789 33.9224 19.3789 33.9224C19.3799 33.9099 19.383 33.8974 19.3852 33.8839C19.3963 33.7741 19.412 33.6678 19.4338 33.5624C19.4421 33.5176 19.4555 33.4747 19.4639 33.4329C19.4835 33.358 19.499 33.285 19.5208 33.2129C19.5352 33.164 19.5539 33.1191 19.5694 33.0699C19.5934 33.0063 19.613 32.9407 19.6398 32.8771C19.6605 32.8279 19.6842 32.7822 19.7051 32.735C19.7322 32.6746 19.7599 32.6153 19.79 32.5589C19.8137 32.5109 19.8408 32.4661 19.8675 32.4191C19.8999 32.3638 19.9329 32.3084 19.9661 32.2564C19.996 32.2105 20.0271 32.1676 20.0583 32.1237C20.0943 32.073 20.1317 32.0215 20.17 31.9726C20.2042 31.9299 20.2384 31.8892 20.2736 31.8494C20.314 31.8026 20.3563 31.7556 20.3987 31.7099C20.4361 31.6709 20.4734 31.6346 20.5117 31.596C20.5571 31.5531 20.6028 31.5104 20.6514 31.4697C20.6918 31.4342 20.731 31.3998 20.7728 31.3643C20.8234 31.3279 20.8729 31.2904 20.925 31.2527C20.9673 31.2214 21.0108 31.1913 21.0553 31.1631C21.1083 31.1276 21.1639 31.0932 21.2177 31.0609C21.2644 31.0358 21.3089 31.0098 21.3555 30.9838C21.4135 30.9542 21.4726 30.9264 21.5314 30.9003C21.5794 30.8771 21.6247 30.8552 21.6724 30.8355C21.7356 30.8095 21.7987 30.7874 21.8628 30.7655C21.9105 30.7489 21.9571 30.7311 22.0057 30.7153C22.0741 30.6956 22.1444 30.6789 22.2139 30.6623C22.2605 30.6508 22.305 30.6382 22.3517 30.6289C22.4314 30.6122 22.511 30.6028 22.5919 30.5902C22.6311 30.5862 22.6706 30.5778 22.712 30.5746C22.8331 30.5611 22.9563 30.5561 23.0805 30.5561C23.1987 30.5561 23.3127 30.5611 23.4274 30.5727C23.5373 30.583 23.6438 30.5997 23.7496 30.6185C23.7535 30.6194 23.7557 30.6194 23.7598 30.6194V30.6207C23.8084 30.6289 23.854 30.6413 23.9017 30.653L24.6865 27.8479L24.8564 27.2437L24.731 27.1487L19.1894 22.8603C16.8836 23.6559 14.8739 25.1396 13.4263 27.1132C13.6314 27.1017 13.8365 27.1091 14.0403 27.1361C15.8221 27.3741 17.0772 29.0213 16.8413 30.8179L16.4352 33.9233L16.4259 33.9861L16.1608 36.0124L16.141 36.1617L15.1908 43.4204C17.0264 45.0357 19.3074 46.0478 21.7284 46.3237C21.6155 46.1518 21.5193 45.9688 21.4405 45.7769C20.7519 44.1014 21.5438 42.1852 23.2037 41.4903L34.8626 36.6319C35.3306 34.2218 35.0623 31.7233 34.0892 29.4741Z" fill="#B3B3B3"/>
</svg>
