<svg width="262" height="70" viewBox="0 0 262 70" fill="none" xmlns="http://www.w3.org/2000/svg">
<path d="M69.4746 35C69.4746 54.3312 53.9238 70 34.7375 70C15.5529 70 0 54.3312 0 35C0 15.6701 15.5529 0 34.7375 0C53.9238 0 69.4746 15.6701 69.4746 35Z" fill="#2F65B0"/>
<path d="M34.7375 2.01566C16.6857 2.01566 2.00024 16.8117 2.00024 35C2.00024 53.19 16.6857 67.9847 34.7375 67.9847C52.7899 67.9847 67.4743 53.19 67.4743 35C67.4743 16.8117 52.7899 2.01566 34.7375 2.01566ZM34.7375 65.958C18.1054 65.958 4.56819 52.6406 4.03608 36.0124H16.1608L16.4259 33.9861H4.03608C4.56819 17.3591 18.1054 4.04041 34.7375 4.04041C51.3702 4.04041 64.9064 17.3591 65.4376 33.9861H54.4332C52.9763 33.9861 51.6945 34.9645 51.2999 36.3748L47.7123 49.1944C47.5165 49.8966 47.0869 50.4497 46.5391 50.703C45.5284 51.1695 44.4134 50.4936 44.05 49.1944L32.6883 8.58341C32.4855 7.85856 31.7346 7.43494 31.0129 7.63946C30.5604 7.76989 30.2041 8.12666 30.0759 8.58341L24.8564 27.2437L24.6865 27.8479L23.9017 30.653L23.8075 30.994L23.6388 31.596C23.2432 33.0117 21.9624 33.9861 20.5054 33.9861H19.8377H19.3758C19.3666 34.0914 19.3594 34.1968 19.3594 34.3062C19.3594 34.419 19.3666 34.5338 19.378 34.6432C19.379 34.6724 19.3821 34.7016 19.3861 34.7278C19.3986 34.8363 19.412 34.9417 19.4338 35.0448C19.439 35.0721 19.4453 35.0959 19.4515 35.1232C19.468 35.1972 19.4876 35.2722 19.5085 35.3452C19.5209 35.3891 19.5352 35.437 19.5508 35.482C19.5685 35.5374 19.5903 35.5966 19.6108 35.65C19.6428 35.7312 19.6762 35.8083 19.7123 35.8895C19.7278 35.9209 19.7433 35.9547 19.7599 35.9885C19.7642 35.9961 19.7692 36.0049 19.7736 36.0124H21.9384C23.4047 36.0124 24.6906 35.0251 25.078 33.6001L25.5407 31.8985L25.6279 31.5782L26.3028 29.0984L26.4684 28.4902L29.26 18.2197C29.4868 17.3886 29.9951 16.7364 30.6401 16.4473C31.8124 15.9215 33.0932 16.7145 33.502 18.2197L44.574 58.925C44.7726 59.6537 45.5181 60.0812 46.241 59.8806C46.7028 59.7552 47.0632 59.3902 47.1882 58.925L52.764 38.4278C53.1515 37.0056 54.4382 36.0124 55.9023 36.0124H65.4376C64.9064 52.6406 51.3702 65.958 34.7375 65.958Z" fill="white"/>
<path d="M34.0892 29.4741C33.9972 29.6588 33.8863 29.8349 33.7618 29.999C32.6665 31.4364 30.6236 31.7055 29.1968 30.6028L26.514 28.5278L26.4684 28.4902L26.3028 29.0984L25.6279 31.5782C25.6431 31.5919 25.6599 31.6045 25.6742 31.6189C25.6742 31.6189 25.6754 31.6198 25.6763 31.6211C25.7613 31.7055 25.8441 31.7932 25.9216 31.8879C25.9994 31.9788 26.0741 32.0758 26.1423 32.177C26.2097 32.2774 26.2707 32.3764 26.3287 32.4786C26.3308 32.4836 26.3339 32.4868 26.3357 32.4912C26.3908 32.589 26.4385 32.6893 26.483 32.7906C26.487 32.8032 26.4944 32.8134 26.4985 32.8248C26.5399 32.9197 26.5742 33.0169 26.6071 33.1139C26.6134 33.1367 26.6217 33.1546 26.6289 33.1743C26.6559 33.264 26.6777 33.3558 26.7005 33.4478C26.7067 33.4791 26.717 33.5092 26.7232 33.5414C26.7407 33.6249 26.7512 33.7127 26.7625 33.7982C26.7686 33.8378 26.7771 33.8763 26.7823 33.9193C26.7917 34.0111 26.7935 34.1039 26.7957 34.199C26.7967 34.2353 26.8007 34.2689 26.8007 34.3062C26.8007 36.1152 25.5261 37.6264 23.8302 37.9776C23.7888 37.9863 23.7465 37.9913 23.7038 37.9964C23.5009 38.0315 23.2927 38.0528 23.0805 38.0528C22.9666 38.0528 22.8526 38.0465 22.7419 38.034C22.713 38.034 22.685 38.0315 22.656 38.0277C22.5524 38.0164 22.4519 38.0001 22.3517 37.9813C22.3423 37.9801 22.3349 37.9776 22.3259 37.9776C22.221 37.9551 22.1186 37.9248 22.0193 37.896C21.9861 37.886 21.9562 37.8772 21.9251 37.8672C21.8423 37.8371 21.7614 37.8083 21.6827 37.7745C21.66 37.7669 21.6395 37.7606 21.6186 37.7518C21.5295 37.713 21.4414 37.6691 21.3555 37.6251C21.3191 37.6063 21.284 37.5825 21.2489 37.5638C21.1898 37.5311 21.134 37.4973 21.0771 37.4596C21.0304 37.4283 20.9838 37.3995 20.9383 37.3681C20.8805 37.3267 20.8234 37.2828 20.7665 37.239C20.726 37.2038 20.6856 37.1674 20.6464 37.1348C20.61 37.1035 20.5758 37.0734 20.5418 37.0383C20.4703 36.9718 20.4009 36.9028 20.3368 36.8276C20.3119 36.8025 20.2848 36.7761 20.2612 36.7448C20.2198 36.6983 20.1815 36.6507 20.142 36.5981C20.1215 36.5717 20.1028 36.5467 20.0832 36.519C20.0064 36.4125 19.9351 36.3021 19.8697 36.1918C19.8635 36.1829 19.8573 36.1704 19.8523 36.1617C19.8501 36.1604 19.8501 36.1604 19.8492 36.1604C19.8231 36.1089 19.7981 36.0626 19.7736 36.0124C19.7692 36.0049 19.7642 35.9961 19.7599 35.9885C19.7433 35.9547 19.7278 35.9209 19.7122 35.8895C19.6762 35.8083 19.6428 35.7312 19.6108 35.65C19.5903 35.5966 19.5685 35.5374 19.5508 35.482C19.5352 35.437 19.5208 35.3891 19.5084 35.3452C19.4876 35.2722 19.468 35.1972 19.4515 35.1232C19.4453 35.0959 19.439 35.0721 19.4338 35.0448C19.412 34.9417 19.3985 34.8363 19.3861 34.7278C19.3821 34.7016 19.3789 34.6724 19.378 34.6432C19.3665 34.5338 19.3594 34.419 19.3594 34.3062C19.3594 34.1968 19.3665 34.0914 19.3758 33.9861C19.378 33.9651 19.378 33.9431 19.3789 33.9233C19.3789 33.9224 19.3789 33.9224 19.3789 33.9224C19.3799 33.9099 19.383 33.8974 19.3852 33.8839C19.3963 33.7741 19.412 33.6678 19.4338 33.5624C19.4421 33.5176 19.4555 33.4747 19.4639 33.4329C19.4835 33.358 19.499 33.285 19.5208 33.2129C19.5352 33.164 19.5539 33.1191 19.5694 33.0699C19.5934 33.0063 19.613 32.9407 19.6398 32.8771C19.6605 32.8279 19.6842 32.7822 19.7051 32.735C19.7322 32.6746 19.7599 32.6153 19.79 32.5589C19.8137 32.5109 19.8408 32.4661 19.8675 32.4191C19.8999 32.3638 19.9329 32.3084 19.9661 32.2564C19.996 32.2105 20.0271 32.1676 20.0583 32.1237C20.0943 32.073 20.1317 32.0215 20.17 31.9726C20.2042 31.9299 20.2384 31.8892 20.2736 31.8494C20.314 31.8026 20.3563 31.7556 20.3987 31.7099C20.4361 31.6709 20.4734 31.6346 20.5117 31.596C20.5571 31.5531 20.6028 31.5104 20.6514 31.4697C20.6918 31.4342 20.731 31.3998 20.7728 31.3643C20.8234 31.3279 20.8729 31.2904 20.925 31.2527C20.9673 31.2214 21.0108 31.1913 21.0553 31.1631C21.1083 31.1276 21.1639 31.0932 21.2177 31.0609C21.2644 31.0358 21.3089 31.0098 21.3555 30.9838C21.4135 30.9542 21.4726 30.9264 21.5314 30.9003C21.5794 30.8771 21.6247 30.8552 21.6724 30.8355C21.7356 30.8095 21.7987 30.7874 21.8628 30.7655C21.9105 30.7489 21.9571 30.7311 22.0057 30.7153C22.0741 30.6956 22.1444 30.6789 22.2139 30.6623C22.2605 30.6508 22.305 30.6382 22.3517 30.6289C22.4314 30.6122 22.511 30.6028 22.5919 30.5902C22.6311 30.5862 22.6706 30.5778 22.712 30.5746C22.8331 30.5611 22.9563 30.5561 23.0805 30.5561C23.1987 30.5561 23.3127 30.5611 23.4274 30.5727C23.5373 30.583 23.6438 30.5997 23.7496 30.6185C23.7535 30.6194 23.7557 30.6194 23.7598 30.6194V30.6207C23.8084 30.6289 23.854 30.6413 23.9017 30.653L24.6865 27.8479L24.8564 27.2437L24.731 27.1487L19.1894 22.8603C16.8836 23.6559 14.8739 25.1396 13.4263 27.1132C13.6314 27.1017 13.8365 27.1091 14.0403 27.1361C15.8221 27.3741 17.0772 29.0213 16.8413 30.8179L16.4352 33.9233L16.4259 33.9861L16.1608 36.0124L16.141 36.1617L15.1908 43.4204C17.0264 45.0357 19.3074 46.0478 21.7284 46.3237C21.6155 46.1518 21.5193 45.9688 21.4405 45.7769C20.7519 44.1014 21.5438 42.1852 23.2037 41.4903L34.8626 36.6319C35.3306 34.2218 35.0623 31.7233 34.0892 29.4741Z" fill="#B3B3B3"/>
<path d="M98.8481 40.1158C98.8481 42.0434 98.1594 43.5633 96.7825 44.6733C95.4052 45.7832 93.4892 46.3374 91.0346 46.3374C88.7732 46.3374 86.773 45.9099 85.0334 45.052V40.8457C86.4633 41.4891 87.6738 41.9418 88.6647 42.2039C89.6552 42.4673 90.5611 42.599 91.3825 42.599C92.3683 42.599 93.1243 42.4096 93.6514 42.0296C94.1778 41.6497 94.4411 41.0865 94.4411 40.3353C94.4411 39.9176 94.3254 39.5439 94.0932 39.2191C93.8615 38.8918 93.5206 38.5783 93.0713 38.276C92.6219 37.975 91.7061 37.4935 90.3245 36.83C89.0291 36.2168 88.0578 35.628 87.4109 35.0627C86.763 34.4983 86.2458 33.8409 85.8597 33.0909C85.4728 32.3419 85.2799 31.4656 85.2799 30.462C85.2799 28.5739 85.915 27.0881 87.1862 26.0075C88.4565 24.9267 90.213 24.3861 92.4555 24.3861C93.557 24.3861 94.6079 24.5179 95.608 24.7806C96.6085 25.0437 97.6541 25.4139 98.7467 25.8908L97.2969 29.4104C96.1664 28.943 95.2313 28.6175 94.4921 28.4319C93.7528 28.2472 93.0253 28.1545 92.3104 28.1545C91.4597 28.1545 90.8074 28.3548 90.3534 28.7533C89.8988 29.1527 89.6722 29.6731 89.6722 30.316C89.6722 30.7153 89.7637 31.064 89.9477 31.3602C90.131 31.6575 90.4235 31.9444 90.8246 32.2218C91.2253 32.4994 92.1748 32.9991 93.6732 33.7189C95.6538 34.6733 97.0118 35.6302 97.7462 36.5892C98.4803 37.5487 98.8481 38.7238 98.8481 40.1158Z" fill="#565655"/>
<path d="M117.33 31.353C117.33 33.6512 116.617 35.4088 115.192 36.6256C113.766 37.8434 111.74 38.4516 109.111 38.4516H107.183V46.0453H102.689V24.6931H109.459C112.03 24.6931 113.984 25.2512 115.323 26.3655C116.661 27.4804 117.33 29.1433 117.33 31.353ZM107.183 34.7414H108.662C110.044 34.7414 111.077 34.4671 111.764 33.9162C112.45 33.3662 112.793 32.5652 112.793 31.5135C112.793 30.4526 112.505 29.669 111.931 29.1621C111.356 28.6561 110.454 28.4027 109.227 28.4027H107.183V34.7414Z" fill="#565655"/>
<path d="M133.841 40.1158C133.841 42.0434 133.152 43.5633 131.775 44.6733C130.398 45.7831 128.482 46.3374 126.028 46.3374C123.766 46.3374 121.766 45.9098 120.027 45.052V40.8457C121.457 41.4891 122.667 41.9418 123.658 42.2039C124.648 42.4672 125.554 42.599 126.376 42.599C127.362 42.599 128.117 42.4096 128.644 42.0296C129.171 41.6496 129.434 41.0865 129.434 40.3353C129.434 39.9176 129.318 39.5439 129.086 39.2191C128.855 38.8918 128.514 38.5783 128.065 38.276C127.615 37.975 126.699 37.4935 125.317 36.83C124.022 36.2168 123.051 35.628 122.404 35.0626C121.756 34.4983 121.239 33.8409 120.853 33.0909C120.466 32.3419 120.273 31.4656 120.273 30.462C120.273 28.5739 120.908 27.0881 122.179 26.0074C123.45 24.9266 125.206 24.3861 127.448 24.3861C128.55 24.3861 129.601 24.5178 130.601 24.7806C131.602 25.0437 132.647 25.4138 133.74 25.8908L132.29 29.4104C131.159 28.943 130.224 28.6175 129.485 28.4319C128.746 28.2472 128.018 28.1545 127.303 28.1545C126.453 28.1545 125.801 28.3548 125.347 28.7533C124.892 29.1527 124.665 29.6731 124.665 30.3159C124.665 30.7153 124.757 31.064 124.941 31.3602C125.124 31.6575 125.416 31.9444 125.818 32.2218C126.218 32.4994 127.168 32.999 128.666 33.7189C130.647 34.6733 132.005 35.6302 132.74 36.5892C133.473 37.5487 133.841 38.7238 133.841 40.1158ZM133.638 18.1937V18.588C132.827 19.4061 132.08 20.2218 131.399 21.0345C130.717 21.8482 130.226 22.4981 129.927 22.9844H124.752C124.472 22.5273 124.071 21.9795 123.549 21.3411C123.027 20.7038 122.191 19.7857 121.041 18.588V18.1937H123.984C125.405 19.0991 126.511 19.957 127.303 20.7643C128.115 19.9171 129.246 19.0605 130.696 18.1937H133.638Z" fill="#565655"/>
<path d="M150.193 40.1158C150.193 42.0434 149.503 43.5633 148.127 44.6733C146.749 45.7832 144.834 46.3374 142.38 46.3374C140.119 46.3374 138.118 45.9099 136.379 45.052V40.8457C137.807 41.4891 139.019 41.9418 140.008 42.2039C140.999 42.4673 141.905 42.599 142.727 42.599C143.713 42.599 144.469 42.4096 144.995 42.0296C145.522 41.6497 145.786 41.0865 145.786 40.3353C145.786 39.9176 145.67 39.5439 145.439 39.2191C145.206 38.8918 144.865 38.5783 144.415 38.276C143.966 37.975 143.051 37.4935 141.669 36.83C140.373 36.2168 139.402 35.628 138.756 35.0627C138.108 34.4983 137.59 33.8409 137.205 33.0909C136.818 32.3419 136.625 31.4656 136.625 30.462C136.625 28.5739 137.259 27.0881 138.53 26.0075C139.802 24.9267 141.558 24.3861 143.801 24.3861C144.902 24.3861 145.952 24.5179 146.952 24.7806C147.952 25.0437 148.998 25.4139 150.091 25.8908L148.642 29.4104C147.511 28.943 146.575 28.6175 145.836 28.4319C145.097 28.2472 144.37 28.1545 143.655 28.1545C142.804 28.1545 142.152 28.3548 141.698 28.7533C141.243 29.1527 141.017 29.6731 141.017 30.316C141.017 30.7153 141.108 31.064 141.292 31.3602C141.475 31.6575 141.768 31.9444 142.169 32.2218C142.57 32.4994 143.519 32.9991 145.018 33.7189C146.998 34.6733 148.356 35.6302 149.091 36.5892C149.824 37.5487 150.193 38.7238 150.193 40.1158Z" fill="#565655"/>
<path d="M166.24 46.0453H154.035V24.6931H166.24V28.4027H158.528V33.0909H165.703V36.8012H158.528V42.3067H166.24V46.0453Z" fill="#565655"/>
<path d="M191.347 46.0453L189.81 40.9636H182.084L180.548 46.0453H175.706L183.186 24.6053H188.679L196.188 46.0453H191.347ZM188.738 37.1661C187.317 32.5611 186.517 29.9559 186.337 29.3522C186.16 28.7489 186.031 28.271 185.955 27.9205C185.635 29.1675 184.722 32.2491 183.214 37.1661H188.738Z" fill="#565655"/>
<path d="M218.657 24.6931H223.195L215.99 46.0453H211.09L203.9 24.6931H208.438L212.424 37.3995C212.645 38.1506 212.875 39.0235 213.112 40.0218C213.349 41.0188 213.496 41.7136 213.555 42.1023C213.66 41.2069 214.023 39.6405 214.642 37.3995L218.657 24.6931Z" fill="#565655"/>
<path d="M245.098 35.3402C245.098 38.8743 244.228 41.5906 242.489 43.4894C240.749 45.3881 238.255 46.3374 235.009 46.3374C231.762 46.3374 229.268 45.3881 227.529 43.4894C225.789 41.5906 224.919 38.8667 224.919 35.311C224.919 31.7578 225.791 29.0433 227.535 27.1687C229.28 25.2951 231.78 24.357 235.038 24.357C238.293 24.357 240.784 25.3023 242.509 27.1903C244.235 29.0796 245.098 31.7963 245.098 35.3402ZM229.631 35.3402C229.631 37.7267 230.08 39.5239 230.979 40.729C231.877 41.9381 233.219 42.5401 235.009 42.5401C238.593 42.5401 240.386 40.1409 240.386 35.3402C240.386 30.531 238.603 28.1253 235.038 28.1253C233.248 28.1253 231.9 28.7314 230.993 29.9434C230.084 31.1558 229.631 32.9552 229.631 35.3402Z" fill="#565655"/>
<path d="M262 40.1158C262 42.0434 261.31 43.5633 259.933 44.6733C258.556 45.7831 256.641 46.3374 254.187 46.3374C251.925 46.3374 249.925 45.9098 248.185 45.052V40.8457C249.614 41.4891 250.826 41.9418 251.816 42.2039C252.806 42.4672 253.713 42.599 254.535 42.599C255.52 42.599 256.276 42.4096 256.802 42.0296C257.329 41.6496 257.593 41.0865 257.593 40.3353C257.593 39.9176 257.477 39.5439 257.245 39.2191C257.014 38.8918 256.672 38.5783 256.223 38.276C255.773 37.975 254.858 37.4935 253.477 36.83C252.18 36.2168 251.209 35.628 250.563 35.0626C249.915 34.4983 249.397 33.8409 249.012 33.0909C248.625 32.3419 248.432 31.4656 248.432 30.462C248.432 28.5739 249.067 27.0881 250.337 26.0074C251.608 24.9266 253.365 24.3861 255.607 24.3861C256.709 24.3861 257.759 24.5178 258.759 24.7806C259.759 25.0437 260.805 25.4138 261.899 25.8908L260.449 29.4104C259.318 28.943 258.382 28.6175 257.643 28.4319C256.903 28.2472 256.177 28.1545 255.463 28.1545C254.611 28.1545 253.959 28.3548 253.505 28.7533C253.05 29.1527 252.824 29.6731 252.824 30.3159C252.824 30.7153 252.915 31.064 253.1 31.3602C253.282 31.6575 253.575 31.9444 253.975 32.2218C254.377 32.4994 255.326 32.999 256.825 33.7189C258.805 34.6733 260.163 35.6302 260.898 36.5892C261.632 37.5487 262 38.7238 262 40.1158ZM261.797 18.1937V18.588C260.986 19.4061 260.237 20.2218 259.557 21.0345C258.875 21.8482 258.384 22.4981 258.086 22.9844H252.911C252.63 22.5273 252.229 21.9795 251.708 21.3411C251.186 20.7038 250.349 19.7857 249.2 18.588V18.1937H252.143C253.563 19.0991 254.669 19.957 255.463 20.7643C256.274 19.9171 257.405 19.0605 258.854 18.1937H261.797Z" fill="#565655"/>
<path d="M203.9 63.752V52.9516H206.173V61.8608H210.521V63.752H203.9Z" fill="#2F65B0"/>
<path d="M212.384 63.752V52.9516H214.656V63.752H212.384Z" fill="#2F65B0"/>
<path d="M217.355 52.9516H220.692C222.212 52.9516 223.316 53.1686 224.002 53.605C224.69 54.0414 225.033 54.7337 225.033 55.6856C225.033 56.3301 224.882 56.8582 224.581 57.2733C224.281 57.6859 223.881 57.9355 223.383 58.0195V58.0934C224.063 58.2452 224.551 58.5323 224.853 58.95C225.153 59.3688 225.303 59.9257 225.303 60.6204C225.303 61.605 224.952 62.3724 224.244 62.9243C223.538 63.4761 222.579 63.752 221.366 63.752H217.355V52.9516ZM219.629 57.2281H220.949C221.565 57.2281 222.01 57.1328 222.287 56.9409C222.563 56.7491 222.702 56.4293 222.702 55.9866C222.702 55.5739 222.551 55.2779 222.25 55.0962C221.95 54.9168 221.473 54.8277 220.824 54.8277H219.629V57.2281ZM219.629 59.0453V61.8608H221.109C221.735 61.8608 222.196 61.7404 222.496 61.4984C222.795 61.2576 222.943 60.8889 222.943 60.3897C222.943 59.4943 222.307 59.0453 221.036 59.0453H219.629Z" fill="#2F65B0"/>
<path d="M233.619 63.752H227.445V52.9516H233.619V54.8277H229.718V57.1993H233.349V59.0754H229.718V61.8608H233.619V63.752Z" fill="#2F65B0"/>
<path d="M238.129 59.6059V63.752H235.857V52.9516H238.981C240.436 52.9516 241.515 53.2175 242.213 53.753C242.912 54.2885 243.262 55.0986 243.262 56.1872C243.262 56.8231 243.088 57.3874 242.74 57.8815C242.395 58.3769 241.903 58.7644 241.268 59.0453C242.881 61.4733 243.931 63.0434 244.421 63.752H241.898L239.339 59.6059H238.129ZM238.129 57.7449H238.862C239.581 57.7449 240.111 57.6257 240.453 57.3849C240.797 57.1428 240.967 56.7641 240.967 56.2461C240.967 55.7344 240.792 55.3695 240.442 55.1526C240.093 54.9356 239.552 54.8277 238.819 54.8277H238.129V57.7449Z" fill="#2F65B0"/>
<path d="M251.944 63.752H245.77V52.9516H251.944V54.8277H248.043V57.1993H251.672V59.0754H248.043V61.8608H251.944V63.752Z" fill="#2F65B0"/>
<path d="M258.734 54.7011C257.877 54.7011 257.215 55.0272 256.746 55.6731C256.277 56.3201 256.042 57.2231 256.042 58.3807C256.042 60.7899 256.939 61.9937 258.734 61.9937C259.486 61.9937 260.398 61.8044 261.468 61.4244V63.3457C260.588 63.7145 259.606 63.9 258.521 63.9C256.962 63.9 255.77 63.4235 254.942 62.4703C254.116 61.5172 253.704 60.149 253.704 58.3656C253.704 57.2419 253.907 56.2587 254.312 55.4147C254.718 54.5707 255.301 53.9223 256.061 53.4708C256.822 53.0205 257.712 52.7948 258.734 52.7948C259.776 52.7948 260.821 53.0495 261.872 53.5573L261.139 55.4184C260.737 55.2266 260.335 55.0585 259.928 54.9169C259.524 54.7725 259.123 54.7011 258.734 54.7011Z" fill="#2F65B0"/>
</svg>
